<svg xmlns="http://www.w3.org/2000/svg" xmlns:xlink="http://www.w3.org/1999/xlink" xmlns:lucid="lucid" width="1240.33" height="760"><g transform="translate(-60 -360)" lucid:page-tab-id="0_0"><path d="M400 385c0-2.76 2.24-5 5-5h870c2.76 0 5 2.24 5 5v110c0 2.76-2.24 5-5 5H405c-2.76 0-5-2.24-5-5z" stroke="#000" stroke-width="2" fill="#66b2ff"/><path d="M457 400c2.76 0 5 2.24 5 5v62c0 2.76-2.24 5-5 5h-51.33c-2.76 0-5-2.24-5-5v-62c0-2.76 2.24-5 5-5z" fill="none"/><use xlink:href="#a" transform="matrix(6.123233995736766e-17,1,-1,6.123233995736766e-17,462,400.00000000000006) translate(0 24.888888888888893)"/><path d="M500 405c0-2.76 2.24-5 5-5h190c2.76 0 5 2.24 5 5v62c0 2.76-2.24 5-5 5H505c-2.76 0-5-2.24-5-5z" stroke="#000" stroke-width="2" fill="#fff"/><use xlink:href="#b" transform="matrix(1,0,0,1,520,400) translate(12.625 28.799999999999997)"/><use xlink:href="#c" transform="matrix(1,0,0,1,520,400) translate(75.375 28.799999999999997)"/><use xlink:href="#d" transform="matrix(1,0,0,1,520,400) translate(41.05 50.4)"/><path d="M742 405c0-2.76 2.24-5 5-5h190c2.76 0 5 2.24 5 5v62c0 2.76-2.24 5-5 5H747c-2.76 0-5-2.24-5-5z" stroke="#000" stroke-width="2" fill="#fff"/><use xlink:href="#e" transform="matrix(1,0,0,1,762,400) translate(6.650000000000006 28.799999999999997)"/><use xlink:href="#f" transform="matrix(1,0,0,1,762,400) translate(74.4 28.799999999999997)"/><use xlink:href="#g" transform="matrix(1,0,0,1,762,400) translate(21.624999999999993 50.4)"/><path d="M984 405c0-2.76 2.24-5 5-5h190c2.76 0 5 2.24 5 5v62c0 2.76-2.24 5-5 5H989c-2.76 0-5-2.24-5-5z" stroke="#000" stroke-width="2" fill="#fff"/><use xlink:href="#h" transform="matrix(1,0,0,1,1004,400) translate(4.599999999999994 39.6)"/><use xlink:href="#i" transform="matrix(1,0,0,1,1004,400) translate(90.5 39.6)"/><path d="M400.33 525c0-2.76 2.24-5 5-5h870c2.76 0 5 2.24 5 5v310c0 2.76-2.24 5-5 5h-870c-2.76 0-5-2.24-5-5z" stroke="#000" stroke-width="2" fill="#66b2ff"/><path d="M456.67 641c2.76 0 5 2.24 5 5v68.67c0 2.76-2.24 5-5 5h-51.34c-2.76 0-5-2.24-5-5V646c0-2.76 2.24-5 5-5z" fill="none"/><use xlink:href="#j" transform="matrix(6.123233995736766e-17,1,-1,6.123233995736766e-17,461.66666666666663,641) translate(0 24.888888888888893)"/><path d="M500 646c0-2.76 2.24-5 5-5h674c2.76 0 5 2.24 5 5v172c0 2.76-2.24 5-5 5H505c-2.76 0-5-2.24-5-5z" stroke="#000" stroke-width="2" fill="#b2d6ef"/><path d="M500 545c0-2.76 2.24-5 5-5h674c2.76 0 5 2.24 5 5v50c0 2.76-2.24 5-5 5H505c-2.76 0-5-2.24-5-5z" stroke="#000" stroke-width="2" fill="#fff"/><use xlink:href="#k" transform="matrix(1,0,0,1,520,540) translate(238.25 33.6)"/><use xlink:href="#l" transform="matrix(1,0,0,1,520,540) translate(277.85 33.6)"/><use xlink:href="#m" transform="matrix(1,0,0,1,520,540) translate(320.85 33.6)"/><path d="M841.88 595.1c1.95-1.95 5.1-1.95 7.07 0l11.45 11.46c1.78 1.78 1.18 3.22-1.33 3.22-2.52 0-4.55 2.03-4.55 4.55v3.9c0 2.52 2.03 4.56 4.55 4.56 2.5 0 3.1 1.43 1.33 3.2l-11.45 11.46c-1.96 1.96-5.12 1.96-7.07 0L830.42 626c-1.78-1.77-1.18-3.2 1.33-3.2 2.52 0 4.56-2.05 4.56-4.56v-3.9c0-2.53-2.03-4.56-4.55-4.56-2.5 0-3.1-1.44-1.33-3.22zM988 745c0-2.76 2.24-5 5-5h150c2.76 0 5 2.24 5 5v50c0 2.76-2.24 5-5 5H993c-2.76 0-5-2.24-5-5z" stroke="#000" stroke-width="2" fill="#fff"/><use xlink:href="#n" transform="matrix(1,0,0,1,1008,740) translate(0 22.799999999999997)"/><use xlink:href="#o" transform="matrix(1,0,0,1,1008,740) translate(0 44.4)"/><path d="M988 666c0-2.76 2.24-5 5-5h150c2.76 0 5 2.24 5 5v50c0 2.76-2.24 5-5 5H993c-2.76 0-5-2.24-5-5z" stroke="#000" stroke-width="2" fill="#fff"/><use xlink:href="#p" transform="matrix(1,0,0,1,1008,661) translate(0 22.799999999999997)"/><use xlink:href="#q" transform="matrix(1,0,0,1,1008,661) translate(62.900000000000006 22.799999999999997)"/><use xlink:href="#r" transform="matrix(1,0,0,1,1008,661) translate(0 44.4)"/><path d="M540 745c0-2.76 2.24-5 5-5h150c2.76 0 5 2.24 5 5v50c0 2.76-2.24 5-5 5H545c-2.76 0-5-2.24-5-5z" stroke="#000" stroke-width="2" fill="#fff"/><use xlink:href="#s" transform="matrix(1,0,0,1,560,740) translate(0 33.6)"/><path d="M765 745c0-2.76 2.24-5 5-5h150c2.76 0 5 2.24 5 5v50c0 2.76-2.24 5-5 5H770c-2.76 0-5-2.24-5-5z" stroke="#000" stroke-width="2" fill="#fff"/><use xlink:href="#t" transform="matrix(1,0,0,1,785,740) translate(0 22.799999999999997)"/><use xlink:href="#u" transform="matrix(1,0,0,1,785,740) translate(0 44.4)"/><path d="M765 665.5c0-2.76 2.24-5 5-5h150c2.76 0 5 2.24 5 5v50c0 2.76-2.24 5-5 5H770c-2.76 0-5-2.24-5-5z" stroke="#000" stroke-width="2" fill="#fff"/><use xlink:href="#v" transform="matrix(1,0,0,1,785,660.5) translate(0 22.799999999999997)"/><use xlink:href="#w" transform="matrix(1,0,0,1,785,660.5) translate(0 44.4)"/><path d="M542 665c0-2.76 2.24-5 5-5h150c2.76 0 5 2.24 5 5v50c0 2.76-2.24 5-5 5H547c-2.76 0-5-2.24-5-5z" stroke="#000" stroke-width="2" fill="#fff"/><use xlink:href="#x" transform="matrix(1,0,0,1,562,660) translate(0 22.799999999999997)"/><use xlink:href="#y" transform="matrix(1,0,0,1,562,660) translate(0 44.4)"/><path d="M80 695c0-2.76 2.24-5 5-5h229.67c2.76 0 5 2.24 5 5v400c0 2.76-2.24 5-5 5H85c-2.76 0-5-2.24-5-5z" stroke="#000" stroke-width="2" fill="#99d5ca"/><path d="M80 705c0-2.76 2.24-5 5-5h230c2.76 0 5 2.24 5 5v21c0 2.76-2.24 5-5 5H85c-2.76 0-5-2.24-5-5z" fill="none"/><use xlink:href="#z" transform="matrix(1,0,0,1,80,700) translate(19.882716049382708 24.888888888888893)"/><use xlink:href="#A" transform="matrix(1,0,0,1,80,700) translate(151.0679012345679 24.888888888888893)"/><path d="M313.54 999.54c-1.96-1.96-1.96-5.12 0-7.08l23.55-23.55c1.94-1.94 3.53-1.3 3.53 1.48v5.3c0 2.77 2.23 5 5 5h38.74c2.77 0 5-2.23 5-5v-5.3c0-2.77 1.6-3.42 3.54-1.47l23.56 23.56c1.96 1.96 1.96 5.12 0 7.08l-23.55 23.55c-1.94 1.94-3.53 1.3-3.53-1.47v-5.32c0-2.75-2.23-5-5-5h-38.74c-2.77 0-5 2.25-5 5v5.33c0 2.76-1.6 3.4-3.54 1.46z" stroke="#000" stroke-width="2" fill="#99d5ca"/><path d="M90 748.5c0-2.76 2.24-5 5-5h205c2.76 0 5 2.24 5 5v110c0 2.76-2.24 5-5 5H95c-2.76 0-5-2.24-5-5z" stroke="#000" stroke-width="2" fill="#fff"/><path d="M94.67 756c0-2.76 2.24-5 5-5h195.66c2.76 0 5 2.24 5 5v95c0 2.76-2.24 5-5 5H99.67c-2.76 0-5-2.24-5-5z" fill="none"/><use xlink:href="#B" transform="matrix(1,0,0,1,94.67391304347827,751) translate(0 14.4)"/><use xlink:href="#C" transform="matrix(1,0,0,1,94.67391304347827,751) translate(70.85000000000001 14.4)"/><use xlink:href="#D" transform="matrix(1,0,0,1,94.67391304347827,751) translate(171.60000000000002 14.4)"/><use xlink:href="#E" transform="matrix(1,0,0,1,94.67391304347827,751) translate(0 36)"/><use xlink:href="#F" transform="matrix(1,0,0,1,94.67391304347827,751) translate(0 57.6)"/><use xlink:href="#G" transform="matrix(1,0,0,1,94.67391304347827,751) translate(60.85 57.6)"/><use xlink:href="#H" transform="matrix(1,0,0,1,94.67391304347827,751) translate(0 79.20000000000002)"/><use xlink:href="#I" transform="matrix(1,0,0,1,94.67391304347827,751) translate(85 79.20000000000002)"/><use xlink:href="#J" transform="matrix(1,0,0,1,94.67391304347827,751) translate(0 100.80000000000001)"/><path d="M90 881c0-2.76 2.24-5 5-5h206c2.76 0 5 2.24 5 5v198c0 2.76-2.24 5-5 5H95c-2.76 0-5-2.24-5-5z" stroke="#000" stroke-width="2" fill="#fff"/><path d="M94.5 881c0-2.76 2.24-5 5-5h188c2.76 0 5 2.24 5 5v198c0 2.76-2.24 5-5 5h-188c-2.76 0-5-2.24-5-5z" fill="none"/><g><use xlink:href="#K" transform="matrix(1,0,0,1,94.5,876) translate(0 21.20000000000001)"/><use xlink:href="#L" transform="matrix(1,0,0,1,94.5,876) translate(40.55 21.20000000000001)"/><use xlink:href="#M" transform="matrix(1,0,0,1,94.5,876) translate(14.85 42.80000000000001)"/><use xlink:href="#N" transform="matrix(1,0,0,1,94.5,876) translate(36 42.80000000000001)"/><use xlink:href="#O" transform="matrix(1,0,0,1,94.5,876) translate(72.95 42.80000000000001)"/><use xlink:href="#M" transform="matrix(1,0,0,1,94.5,876) translate(14.85 64.40000000000002)"/><use xlink:href="#P" transform="matrix(1,0,0,1,94.5,876) translate(36 64.40000000000002)"/><use xlink:href="#M" transform="matrix(1,0,0,1,94.5,876) translate(14.85 86.00000000000003)"/><use xlink:href="#Q" transform="matrix(1,0,0,1,94.5,876) translate(36 86.00000000000003)"/><use xlink:href="#M" transform="matrix(1,0,0,1,94.5,876) translate(14.85 107.60000000000002)"/><use xlink:href="#R" transform="matrix(1,0,0,1,94.5,876) translate(36 107.60000000000002)"/><use xlink:href="#M" transform="matrix(1,0,0,1,94.5,876) translate(14.85 129.20000000000002)"/><use xlink:href="#S" transform="matrix(1,0,0,1,94.5,876) translate(36 129.20000000000002)"/><use xlink:href="#T" transform="matrix(1,0,0,1,94.5,876) translate(109.9 129.20000000000002)"/><use xlink:href="#M" transform="matrix(1,0,0,1,94.5,876) translate(14.85 150.8)"/><use xlink:href="#U" transform="matrix(1,0,0,1,94.5,876) translate(36 150.8)"/><use xlink:href="#M" transform="matrix(1,0,0,1,94.5,876) translate(14.85 172.4)"/><use xlink:href="#V" transform="matrix(1,0,0,1,94.5,876) translate(36 172.4)"/><use xlink:href="#W" transform="matrix(1,0,0,1,94.5,876) translate(85 172.4)"/><use xlink:href="#M" transform="matrix(1,0,0,1,94.5,876) translate(14.85 194)"/><use xlink:href="#X" transform="matrix(1,0,0,1,94.5,876) translate(36 194)"/></g><path d="M400 865c0-2.76 2.24-5 5-5h870c2.76 0 5 2.24 5 5v230c0 2.76-2.24 5-5 5H405c-2.76 0-5-2.24-5-5z" stroke="#000" stroke-width="2" fill="#66b2ff"/><g><path d="M456.33 880c2.76 0 5 2.24 5 5v200.67c0 2.76-2.24 5-5 5H405c-2.76 0-5-2.24-5-5V885c0-2.76 2.24-5 5-5z" fill="none"/></g><g><use xlink:href="#Y" transform="matrix(6.123233995736766e-17,1,-1,6.123233995736766e-17,461.33333333333337,880) translate(0 24.888888888888893)"/></g><path d="M480 885c0-2.76 2.24-5 5-5h550c2.76 0 5 2.24 5 5v70c0 2.76-2.24 5-5 5H485c-2.76 0-5-2.24-5-5z" stroke="#000" stroke-width="2" fill="#fff"/><g><use xlink:href="#Z" transform="matrix(1,0,0,1,499.99999999999994,880) translate(199.05 43.6)"/><use xlink:href="#aa" transform="matrix(1,0,0,1,499.99999999999994,880) translate(233.05 43.6)"/></g><path d="M480 1005c0-2.76 2.24-5 5-5h252c2.76 0 5 2.24 5 5v70c0 2.76-2.24 5-5 5H485c-2.76 0-5-2.24-5-5z" stroke="#000" stroke-width="2" fill="#fff"/><g><use xlink:href="#ab" transform="matrix(1,0,0,1,499.9999999999999,1000) translate(79.05 43.6)"/></g><path d="M778 1005c0-2.76 2.24-5 5-5h252c2.76 0 5 2.24 5 5v70c0 2.76-2.24 5-5 5H783c-2.76 0-5-2.24-5-5z" stroke="#000" stroke-width="2" fill="#fff"/><g><use xlink:href="#ac" transform="matrix(1,0,0,1,797.9999999999997,1000) translate(82.05 43.6)"/></g><g><path d="M616.13 953.5c1.95-1.96 5.12-1.96 7.07 0l10.9 10.9c1.72 1.7 1.15 3.1-1.27 3.1-2.43 0-4.4 1.96-4.4 4.4v12.23c0 2.42 1.97 4.38 4.4 4.38 2.42 0 3 1.4 1.28 3.1l-10.9 10.92c-1.95 1.96-5.12 1.96-7.07 0l-10.9-10.9c-1.72-1.72-1.14-3.1 1.28-3.1 2.43 0 4.4-1.97 4.4-4.4V971.9c0-2.44-1.97-4.4-4.4-4.4-2.4 0-3-1.4-1.28-3.1z" stroke="#000" stroke-width="2" fill="#fff"/></g><g><path d="M915.54 955.48c1.95-1.95 5.12-1.95 7.07 0l10.92 10.9c1.7 1.73 1.14 3.1-1.28 3.1-2.43 0-4.4 1.98-4.4 4.4v12.24c0 2.42 1.97 4.4 4.4 4.4 2.42 0 3 1.37 1.28 3.1l-10.9 10.9c-1.96 1.95-5.13 1.95-7.08 0l-10.9-10.9c-1.72-1.73-1.14-3.1 1.28-3.1s4.4-1.98 4.4-4.4v-12.24c0-2.42-1.98-4.4-4.4-4.4-2.42 0-3-1.37-1.3-3.1z" stroke="#000" stroke-width="2" fill="#fff"/></g><path d="M1060 885c0-2.76 2.24-5 5-5h190c2.76 0 5 2.24 5 5v190c0 2.76-2.24 5-5 5h-190c-2.76 0-5-2.24-5-5z" fill="#fff"/><path d="M1086.1 880h21.12m10.56 0h21.1m10.56 0h21.12m10.55 0h21.12m10.56 0h21.1m10.56 0H1255l2.95.96 1.8 2.46.25 1.58v10.56m0 10.55v21.12m0 10.56v21.1m0 10.56v21.12m0 10.55v21.12m0 10.56v21.1m0 10.56V1075l-.96 2.95-2.46 1.8-1.58.25h-10.56m-10.55 0h-21.12m-10.56 0h-21.1m-10.56 0h-21.12m-10.55 0h-21.12m-10.56 0h-21.1m-10.56 0H1065l-2.95-.96-1.8-2.46-.25-1.58v-10.56m0-10.55v-21.12m0-10.56v-21.1m0-10.56v-21.12m0-10.55v-21.12m0-10.56v-21.1m0-10.56V885l.96-2.95 2.46-1.8 1.58-.25h10.56" stroke="#000" stroke-width="2" fill="none"/><g><use xlink:href="#k" transform="matrix(1,0,0,1,1080,880) translate(16.724999999999994 92.80000000000001)"/><use xlink:href="#ad" transform="matrix(1,0,0,1,1080,880) translate(56.324999999999996 92.80000000000001)"/><use xlink:href="#ae" transform="matrix(1,0,0,1,1080,880) translate(1.174999999999983 114.4)"/><use xlink:href="#af" transform="matrix(1,0,0,1,1080,880) translate(108.975 114.4)"/></g><defs><path d="M199 0l-22-63H83L61 0H9l90-248h61L250 0h-51zm-33-102l-36-108c-10 38-24 72-36 108h72" id="ag"/><path d="M135-194c53 0 70 44 70 98 0 56-19 98-73 100-31 1-45-17-59-34 3 33 2 69 2 105H25l-1-265h48c2 10 0 23 3 31 11-24 29-35 60-35zM114-30c33 0 39-31 40-66 0-38-9-64-40-64-56 0-55 130 0 130" id="ah"/><path d="M137-138c1-29-70-34-71-4 15 46 118 7 119 86 1 83-164 76-172 9l43-7c4 19 20 25 44 25 33 8 57-30 24-41C81-84 22-81 20-136c-2-80 154-74 161-7" id="ai"/><g id="a"><use transform="matrix(0.08641975308641976,0,0,0.08641975308641976,0,0)" xlink:href="#ag"/><use transform="matrix(0.08641975308641976,0,0,0.08641975308641976,22.38271604938272,0)" xlink:href="#ah"/><use transform="matrix(0.08641975308641976,0,0,0.08641975308641976,41.308641975308646,0)" xlink:href="#ah"/><use transform="matrix(0.08641975308641976,0,0,0.08641975308641976,60.23456790123458,0)" xlink:href="#ai"/></g><path d="M212-179c-10-28-35-45-73-45-59 0-87 40-87 99 0 60 29 101 89 101 43 0 62-24 78-52l27 14C228-24 195 4 139 4 59 4 22-46 18-125c-6-104 99-153 187-111 19 9 31 26 39 46" id="aj"/><path d="M24 0v-261h32V0H24" id="ak"/><path d="M24-231v-30h32v30H24zM24 0v-190h32V0H24" id="al"/><path d="M117-194c89-4 53 116 60 194h-32v-121c0-31-8-49-39-48C34-167 62-67 57 0H25l-1-190h30c1 10-1 24 2 32 11-22 29-35 61-36" id="am"/><path d="M96-169c-40 0-48 33-48 73s9 75 48 75c24 0 41-14 43-38l32 2c-6 37-31 61-74 61-59 0-76-41-82-99-10-93 101-131 147-64 4 7 5 14 7 22l-32 3c-4-21-16-35-41-35" id="an"/><path d="M141-36C126-15 110 5 73 4 37 3 15-17 15-53c-1-64 63-63 125-63 3-35-9-54-41-54-24 1-41 7-42 31l-33-3c5-37 33-52 76-52 45 0 72 20 72 64v82c-1 20 7 32 28 27v20c-31 9-61-2-59-35zM48-53c0 20 12 33 32 33 41-3 63-29 60-74-43 2-92-5-92 41" id="ao"/><g id="b"><use transform="matrix(0.05,0,0,0.05,0,0)" xlink:href="#aj"/><use transform="matrix(0.05,0,0,0.05,12.950000000000001,0)" xlink:href="#ak"/><use transform="matrix(0.05,0,0,0.05,16.900000000000002,0)" xlink:href="#al"/><use transform="matrix(0.05,0,0,0.05,20.85,0)" xlink:href="#am"/><use transform="matrix(0.05,0,0,0.05,30.85,0)" xlink:href="#al"/><use transform="matrix(0.05,0,0,0.05,34.800000000000004,0)" xlink:href="#an"/><use transform="matrix(0.05,0,0,0.05,43.800000000000004,0)" xlink:href="#ao"/><use transform="matrix(0.05,0,0,0.05,53.800000000000004,0)" xlink:href="#ak"/></g><path d="M100-194c62-1 85 37 85 99 1 63-27 99-86 99S16-35 15-95c0-66 28-99 85-99zM99-20c44 1 53-31 53-75 0-43-8-75-51-75s-53 32-53 75 10 74 51 75" id="ap"/><path d="M100-194c63 0 86 42 84 106H49c0 40 14 67 53 68 26 1 43-12 49-29l28 8c-11 28-37 45-77 45C44 4 14-33 15-96c1-61 26-98 85-98zm52 81c6-60-76-77-97-28-3 7-6 17-6 28h103" id="aq"/><path d="M115-194c55 1 70 41 70 98S169 2 115 4C84 4 66-9 55-30l1 105H24l-1-265h31l2 30c10-21 28-34 59-34zm-8 174c40 0 45-34 45-75s-6-73-45-74c-42 0-51 32-51 76 0 43 10 73 51 73" id="ar"/><path d="M59-47c-2 24 18 29 38 22v24C64 9 27 4 27-40v-127H5v-23h24l9-43h21v43h35v23H59v120" id="as"/><path d="M135-143c-3-34-86-38-87 0 15 53 115 12 119 90S17 21 10-45l28-5c4 36 97 45 98 0-10-56-113-15-118-90-4-57 82-63 122-42 12 7 21 19 24 35" id="at"/><g id="c"><use transform="matrix(0.05,0,0,0.05,0,0)" xlink:href="#an"/><use transform="matrix(0.05,0,0,0.05,9,0)" xlink:href="#ap"/><use transform="matrix(0.05,0,0,0.05,19,0)" xlink:href="#am"/><use transform="matrix(0.05,0,0,0.05,29,0)" xlink:href="#an"/><use transform="matrix(0.05,0,0,0.05,38,0)" xlink:href="#aq"/><use transform="matrix(0.05,0,0,0.05,48,0)" xlink:href="#ar"/><use transform="matrix(0.05,0,0,0.05,58,0)" xlink:href="#as"/><use transform="matrix(0.05,0,0,0.05,63,0)" xlink:href="#at"/></g><path d="M141 0L90-78 38 0H4l68-98-65-92h35l48 74 47-74h35l-64 92 68 98h-35" id="au"/><path d="M114-163C36-179 61-72 57 0H25l-1-190h30c1 12-1 29 2 39 6-27 23-49 58-41v29" id="av"/><g id="d"><use transform="matrix(0.05,0,0,0.05,0,0)" xlink:href="#aq"/><use transform="matrix(0.05,0,0,0.05,10,0)" xlink:href="#au"/><use transform="matrix(0.05,0,0,0.05,19,0)" xlink:href="#as"/><use transform="matrix(0.05,0,0,0.05,24,0)" xlink:href="#av"/><use transform="matrix(0.05,0,0,0.05,29.950000000000003,0)" xlink:href="#ao"/><use transform="matrix(0.05,0,0,0.05,39.95,0)" xlink:href="#an"/><use transform="matrix(0.05,0,0,0.05,48.95,0)" xlink:href="#as"/><use transform="matrix(0.05,0,0,0.05,53.95,0)" xlink:href="#al"/><use transform="matrix(0.05,0,0,0.05,57.900000000000006,0)" xlink:href="#ap"/><use transform="matrix(0.05,0,0,0.05,67.9,0)" xlink:href="#am"/></g><g id="e"><use transform="matrix(0.05,0,0,0.05,0,0)" xlink:href="#aj"/><use transform="matrix(0.05,0,0,0.05,12.950000000000001,0)" xlink:href="#ak"/><use transform="matrix(0.05,0,0,0.05,16.900000000000002,0)" xlink:href="#al"/><use transform="matrix(0.05,0,0,0.05,20.85,0)" xlink:href="#am"/><use transform="matrix(0.05,0,0,0.05,30.85,0)" xlink:href="#al"/><use transform="matrix(0.05,0,0,0.05,34.800000000000004,0)" xlink:href="#an"/><use transform="matrix(0.05,0,0,0.05,43.800000000000004,0)" xlink:href="#ao"/><use transform="matrix(0.05,0,0,0.05,53.800000000000004,0)" xlink:href="#ak"/></g><path d="M85-194c31 0 48 13 60 33l-1-100h32l1 261h-30c-2-10 0-23-3-31C134-8 116 4 85 4 32 4 16-35 15-94c0-66 23-100 70-100zm9 24c-40 0-46 34-46 75 0 40 6 74 45 74 42 0 51-32 51-76 0-42-9-74-50-73" id="aw"/><path d="M84 4C-5 8 30-112 23-190h32v120c0 31 7 50 39 49 72-2 45-101 50-169h31l1 190h-30c-1-10 1-25-2-33-11 22-28 36-60 37" id="ax"/><path d="M210-169c-67 3-38 105-44 169h-31v-121c0-29-5-50-35-48C34-165 62-65 56 0H25l-1-190h30c1 10-1 24 2 32 10-44 99-50 107 0 11-21 27-35 58-36 85-2 47 119 55 194h-31v-121c0-29-5-49-35-48" id="ay"/><g id="f"><use transform="matrix(0.05,0,0,0.05,0,0)" xlink:href="#aw"/><use transform="matrix(0.05,0,0,0.05,10,0)" xlink:href="#ap"/><use transform="matrix(0.05,0,0,0.05,20,0)" xlink:href="#an"/><use transform="matrix(0.05,0,0,0.05,29,0)" xlink:href="#ax"/><use transform="matrix(0.05,0,0,0.05,39,0)" xlink:href="#ay"/><use transform="matrix(0.05,0,0,0.05,53.95,0)" xlink:href="#aq"/><use transform="matrix(0.05,0,0,0.05,63.95,0)" xlink:href="#am"/><use transform="matrix(0.05,0,0,0.05,73.95,0)" xlink:href="#as"/></g><path d="M9 0v-24l116-142H16v-24h144v24L44-24h123V0H9" id="az"/><g id="g"><use transform="matrix(0.05,0,0,0.05,0,0)" xlink:href="#at"/><use transform="matrix(0.05,0,0,0.05,9,0)" xlink:href="#ax"/><use transform="matrix(0.05,0,0,0.05,19,0)" xlink:href="#ay"/><use transform="matrix(0.05,0,0,0.05,33.95,0)" xlink:href="#ay"/><use transform="matrix(0.05,0,0,0.05,48.900000000000006,0)" xlink:href="#ao"/><use transform="matrix(0.05,0,0,0.05,58.900000000000006,0)" xlink:href="#av"/><use transform="matrix(0.05,0,0,0.05,64.85000000000001,0)" xlink:href="#al"/><use transform="matrix(0.05,0,0,0.05,68.80000000000001,0)" xlink:href="#az"/><use transform="matrix(0.05,0,0,0.05,77.80000000000001,0)" xlink:href="#ao"/><use transform="matrix(0.05,0,0,0.05,87.80000000000001,0)" xlink:href="#as"/><use transform="matrix(0.05,0,0,0.05,92.80000000000001,0)" xlink:href="#al"/><use transform="matrix(0.05,0,0,0.05,96.75000000000001,0)" xlink:href="#ap"/><use transform="matrix(0.05,0,0,0.05,106.75,0)" xlink:href="#am"/></g><path d="M185-189c-5-48-123-54-124 2 14 75 158 14 163 119 3 78-121 87-175 55-17-10-28-26-33-46l33-7c5 56 141 63 141-1 0-78-155-14-162-118-5-82 145-84 179-34 5 7 8 16 11 25" id="aA"/><g id="h"><use transform="matrix(0.05,0,0,0.05,0,0)" xlink:href="#aA"/><use transform="matrix(0.05,0,0,0.05,12,0)" xlink:href="#aq"/><use transform="matrix(0.05,0,0,0.05,22,0)" xlink:href="#am"/><use transform="matrix(0.05,0,0,0.05,32,0)" xlink:href="#as"/><use transform="matrix(0.05,0,0,0.05,37,0)" xlink:href="#al"/><use transform="matrix(0.05,0,0,0.05,40.95,0)" xlink:href="#ay"/><use transform="matrix(0.05,0,0,0.05,55.900000000000006,0)" xlink:href="#aq"/><use transform="matrix(0.05,0,0,0.05,65.9,0)" xlink:href="#am"/><use transform="matrix(0.05,0,0,0.05,75.9,0)" xlink:href="#as"/></g><path d="M179-190L93 31C79 59 56 82 12 73V49c39 6 53-20 64-50L1-190h34L92-34l54-156h33" id="aB"/><g id="i"><use transform="matrix(0.05,0,0,0.05,0,0)" xlink:href="#ao"/><use transform="matrix(0.05,0,0,0.05,10,0)" xlink:href="#am"/><use transform="matrix(0.05,0,0,0.05,20,0)" xlink:href="#ao"/><use transform="matrix(0.05,0,0,0.05,30,0)" xlink:href="#ak"/><use transform="matrix(0.05,0,0,0.05,33.95,0)" xlink:href="#aB"/><use transform="matrix(0.05,0,0,0.05,42.95,0)" xlink:href="#at"/><use transform="matrix(0.05,0,0,0.05,51.95,0)" xlink:href="#al"/><use transform="matrix(0.05,0,0,0.05,55.900000000000006,0)" xlink:href="#at"/></g><path d="M175 0L67-191c6 58 2 128 3 191H24v-248h59L193-55c-6-58-2-129-3-193h46V0h-61" id="aC"/><path d="M24 0v-248h52v208h133V0H24" id="aD"/><path d="M24-248c93 1 206-16 204 79-1 75-69 88-152 82V0H24v-248zm52 121c47 0 100 7 100-41 0-47-54-39-100-39v80" id="aE"/><g id="j"><use transform="matrix(0.08641975308641976,0,0,0.08641975308641976,0,0)" xlink:href="#aC"/><use transform="matrix(0.08641975308641976,0,0,0.08641975308641976,22.38271604938272,0)" xlink:href="#aD"/><use transform="matrix(0.08641975308641976,0,0,0.08641975308641976,41.308641975308646,0)" xlink:href="#aE"/></g><path d="M190 0L58-211 59 0H30v-248h39L202-35l-2-213h31V0h-41" id="aF"/><path d="M30 0v-248h33v221h125V0H30" id="aG"/><path d="M30-248c87 1 191-15 191 75 0 78-77 80-158 76V0H30v-248zm33 125c57 0 124 11 124-50 0-59-68-47-124-48v98" id="aH"/><g id="k"><use transform="matrix(0.05,0,0,0.05,0,0)" xlink:href="#aF"/><use transform="matrix(0.05,0,0,0.05,12.950000000000001,0)" xlink:href="#aG"/><use transform="matrix(0.05,0,0,0.05,22.950000000000003,0)" xlink:href="#aH"/></g><path d="M205 0l-28-72H64L36 0H1l101-248h38L239 0h-34zm-38-99l-47-123c-12 45-31 82-46 123h93" id="aI"/><path d="M33 0v-248h34V0H33" id="aJ"/><g id="l"><use transform="matrix(0.05,0,0,0.05,0,0)" xlink:href="#aI"/><use transform="matrix(0.05,0,0,0.05,12,0)" xlink:href="#aH"/><use transform="matrix(0.05,0,0,0.05,24,0)" xlink:href="#aJ"/><use transform="matrix(0.05,0,0,0.05,29,0)" xlink:href="#at"/></g><path d="M177-190C167-65 218 103 67 71c-23-6-38-20-44-43l32-5c15 47 100 32 89-28v-30C133-14 115 1 83 1 29 1 15-40 15-95c0-56 16-97 71-98 29-1 48 16 59 35 1-10 0-23 2-32h30zM94-22c36 0 50-32 50-73 0-42-14-75-50-75-39 0-46 34-46 75s6 73 46 73" id="aK"/><g id="m"><use transform="matrix(0.05,0,0,0.05,0,0)" xlink:href="#aJ"/><use transform="matrix(0.05,0,0,0.05,5,0)" xlink:href="#am"/><use transform="matrix(0.05,0,0,0.05,15,0)" xlink:href="#as"/><use transform="matrix(0.05,0,0,0.05,20,0)" xlink:href="#aq"/><use transform="matrix(0.05,0,0,0.05,30,0)" xlink:href="#aK"/><use transform="matrix(0.05,0,0,0.05,40,0)" xlink:href="#av"/><use transform="matrix(0.05,0,0,0.05,45.95,0)" xlink:href="#ao"/><use transform="matrix(0.05,0,0,0.05,55.95,0)" xlink:href="#as"/><use transform="matrix(0.05,0,0,0.05,60.95,0)" xlink:href="#al"/><use transform="matrix(0.05,0,0,0.05,64.9,0)" xlink:href="#ap"/><use transform="matrix(0.05,0,0,0.05,74.9,0)" xlink:href="#am"/></g><path d="M16-82v-28h88v28H16" id="aL"/><path d="M101-234c-31-9-42 10-38 44h38v23H63V0H32v-167H5v-23h27c-7-52 17-82 69-68v24" id="aM"/><path d="M106-169C34-169 62-67 57 0H25v-261h32l-1 103c12-21 28-36 61-36 89 0 53 116 60 194h-32v-121c2-32-8-49-39-48" id="aN"/><g id="n"><use transform="matrix(0.05,0,0,0.05,0,0)" xlink:href="#aH"/><use transform="matrix(0.05,0,0,0.05,12,0)" xlink:href="#ao"/><use transform="matrix(0.05,0,0,0.05,22,0)" xlink:href="#av"/><use transform="matrix(0.05,0,0,0.05,27.950000000000003,0)" xlink:href="#as"/><use transform="matrix(0.05,0,0,0.05,32.95,0)" xlink:href="#aL"/><use transform="matrix(0.05,0,0,0.05,38.900000000000006,0)" xlink:href="#ap"/><use transform="matrix(0.05,0,0,0.05,48.900000000000006,0)" xlink:href="#aM"/><use transform="matrix(0.05,0,0,0.05,53.900000000000006,0)" xlink:href="#aL"/><use transform="matrix(0.05,0,0,0.05,59.85,0)" xlink:href="#aA"/><use transform="matrix(0.05,0,0,0.05,71.85000000000001,0)" xlink:href="#ar"/><use transform="matrix(0.05,0,0,0.05,81.85000000000001,0)" xlink:href="#aq"/><use transform="matrix(0.05,0,0,0.05,91.85000000000001,0)" xlink:href="#aq"/><use transform="matrix(0.05,0,0,0.05,101.85000000000001,0)" xlink:href="#an"/><use transform="matrix(0.05,0,0,0.05,110.85000000000001,0)" xlink:href="#aN"/></g><g id="o"><use transform="matrix(0.05,0,0,0.05,0,0)" xlink:href="#as"/><use transform="matrix(0.05,0,0,0.05,5,0)" xlink:href="#ao"/><use transform="matrix(0.05,0,0,0.05,15,0)" xlink:href="#aK"/><use transform="matrix(0.05,0,0,0.05,25,0)" xlink:href="#aK"/><use transform="matrix(0.05,0,0,0.05,35,0)" xlink:href="#al"/><use transform="matrix(0.05,0,0,0.05,38.95,0)" xlink:href="#am"/><use transform="matrix(0.05,0,0,0.05,48.95,0)" xlink:href="#aK"/></g><g id="p"><use transform="matrix(0.05,0,0,0.05,0,0)" xlink:href="#aF"/><use transform="matrix(0.05,0,0,0.05,12.950000000000001,0)" xlink:href="#ao"/><use transform="matrix(0.05,0,0,0.05,22.950000000000003,0)" xlink:href="#ay"/><use transform="matrix(0.05,0,0,0.05,37.900000000000006,0)" xlink:href="#aq"/><use transform="matrix(0.05,0,0,0.05,47.900000000000006,0)" xlink:href="#aw"/></g><g id="q"><use transform="matrix(0.05,0,0,0.05,0,0)" xlink:href="#aq"/><use transform="matrix(0.05,0,0,0.05,10,0)" xlink:href="#am"/><use transform="matrix(0.05,0,0,0.05,20,0)" xlink:href="#as"/><use transform="matrix(0.05,0,0,0.05,25,0)" xlink:href="#al"/><use transform="matrix(0.05,0,0,0.05,28.950000000000003,0)" xlink:href="#as"/><use transform="matrix(0.05,0,0,0.05,33.95,0)" xlink:href="#aB"/></g><g id="r"><use transform="matrix(0.05,0,0,0.05,0,0)" xlink:href="#av"/><use transform="matrix(0.05,0,0,0.05,5.95,0)" xlink:href="#aq"/><use transform="matrix(0.05,0,0,0.05,15.949999999999998,0)" xlink:href="#an"/><use transform="matrix(0.05,0,0,0.05,24.95,0)" xlink:href="#ap"/><use transform="matrix(0.05,0,0,0.05,34.95,0)" xlink:href="#am"/><use transform="matrix(0.05,0,0,0.05,44.95,0)" xlink:href="#aK"/><use transform="matrix(0.05,0,0,0.05,54.95,0)" xlink:href="#am"/><use transform="matrix(0.05,0,0,0.05,64.95,0)" xlink:href="#al"/><use transform="matrix(0.05,0,0,0.05,68.9,0)" xlink:href="#as"/><use transform="matrix(0.05,0,0,0.05,73.9,0)" xlink:href="#al"/><use transform="matrix(0.05,0,0,0.05,77.85000000000001,0)" xlink:href="#ap"/><use transform="matrix(0.05,0,0,0.05,87.85000000000001,0)" xlink:href="#am"/></g><g id="s"><use transform="matrix(0.05,0,0,0.05,0,0)" xlink:href="#aA"/><use transform="matrix(0.05,0,0,0.05,12,0)" xlink:href="#ax"/><use transform="matrix(0.05,0,0,0.05,22,0)" xlink:href="#ay"/><use transform="matrix(0.05,0,0,0.05,36.95,0)" xlink:href="#ay"/><use transform="matrix(0.05,0,0,0.05,51.900000000000006,0)" xlink:href="#ao"/><use transform="matrix(0.05,0,0,0.05,61.900000000000006,0)" xlink:href="#av"/><use transform="matrix(0.05,0,0,0.05,67.85000000000001,0)" xlink:href="#al"/><use transform="matrix(0.05,0,0,0.05,71.80000000000001,0)" xlink:href="#az"/><use transform="matrix(0.05,0,0,0.05,80.80000000000001,0)" xlink:href="#ao"/><use transform="matrix(0.05,0,0,0.05,90.80000000000001,0)" xlink:href="#as"/><use transform="matrix(0.05,0,0,0.05,95.80000000000001,0)" xlink:href="#al"/><use transform="matrix(0.05,0,0,0.05,99.75000000000001,0)" xlink:href="#ap"/><use transform="matrix(0.05,0,0,0.05,109.75,0)" xlink:href="#am"/></g><path d="M30-248c118-7 216 8 213 122C240-48 200 0 122 0H30v-248zM63-27c89 8 146-16 146-99s-60-101-146-95v194" id="aO"/><g id="t"><use transform="matrix(0.05,0,0,0.05,0,0)" xlink:href="#aO"/><use transform="matrix(0.05,0,0,0.05,12.950000000000001,0)" xlink:href="#ap"/><use transform="matrix(0.05,0,0,0.05,22.950000000000003,0)" xlink:href="#an"/><use transform="matrix(0.05,0,0,0.05,31.950000000000003,0)" xlink:href="#ax"/><use transform="matrix(0.05,0,0,0.05,41.95,0)" xlink:href="#ay"/><use transform="matrix(0.05,0,0,0.05,56.900000000000006,0)" xlink:href="#aq"/><use transform="matrix(0.05,0,0,0.05,66.9,0)" xlink:href="#am"/><use transform="matrix(0.05,0,0,0.05,76.9,0)" xlink:href="#as"/></g><g id="u"><use transform="matrix(0.05,0,0,0.05,0,0)" xlink:href="#an"/><use transform="matrix(0.05,0,0,0.05,9,0)" xlink:href="#ak"/><use transform="matrix(0.05,0,0,0.05,12.949999999999998,0)" xlink:href="#ao"/><use transform="matrix(0.05,0,0,0.05,22.95,0)" xlink:href="#at"/><use transform="matrix(0.05,0,0,0.05,31.950000000000003,0)" xlink:href="#at"/><use transform="matrix(0.05,0,0,0.05,40.95,0)" xlink:href="#al"/><use transform="matrix(0.05,0,0,0.05,44.900000000000006,0)" xlink:href="#aM"/><use transform="matrix(0.05,0,0,0.05,49.900000000000006,0)" xlink:href="#al"/><use transform="matrix(0.05,0,0,0.05,53.85,0)" xlink:href="#an"/><use transform="matrix(0.05,0,0,0.05,62.85,0)" xlink:href="#ao"/><use transform="matrix(0.05,0,0,0.05,72.85000000000001,0)" xlink:href="#as"/><use transform="matrix(0.05,0,0,0.05,77.85000000000001,0)" xlink:href="#al"/><use transform="matrix(0.05,0,0,0.05,81.80000000000001,0)" xlink:href="#ap"/><use transform="matrix(0.05,0,0,0.05,91.80000000000001,0)" xlink:href="#am"/></g><g id="v"><use transform="matrix(0.05,0,0,0.05,0,0)" xlink:href="#aA"/><use transform="matrix(0.05,0,0,0.05,12,0)" xlink:href="#aq"/><use transform="matrix(0.05,0,0,0.05,22,0)" xlink:href="#am"/><use transform="matrix(0.05,0,0,0.05,32,0)" xlink:href="#as"/><use transform="matrix(0.05,0,0,0.05,37,0)" xlink:href="#al"/><use transform="matrix(0.05,0,0,0.05,40.95,0)" xlink:href="#ay"/><use transform="matrix(0.05,0,0,0.05,55.900000000000006,0)" xlink:href="#aq"/><use transform="matrix(0.05,0,0,0.05,65.9,0)" xlink:href="#am"/><use transform="matrix(0.05,0,0,0.05,75.9,0)" xlink:href="#as"/></g><g id="w"><use transform="matrix(0.05,0,0,0.05,0,0)" xlink:href="#ao"/><use transform="matrix(0.05,0,0,0.05,10,0)" xlink:href="#am"/><use transform="matrix(0.05,0,0,0.05,20,0)" xlink:href="#ao"/><use transform="matrix(0.05,0,0,0.05,30,0)" xlink:href="#ak"/><use transform="matrix(0.05,0,0,0.05,33.95,0)" xlink:href="#aB"/><use transform="matrix(0.05,0,0,0.05,42.95,0)" xlink:href="#at"/><use transform="matrix(0.05,0,0,0.05,51.95,0)" xlink:href="#al"/><use transform="matrix(0.05,0,0,0.05,55.900000000000006,0)" xlink:href="#at"/></g><path d="M233-177c-1 41-23 64-60 70L243 0h-38l-65-103H63V0H30v-248c88 3 205-21 203 71zM63-129c60-2 137 13 137-47 0-61-80-42-137-45v92" id="aP"/><g id="x"><use transform="matrix(0.05,0,0,0.05,0,0)" xlink:href="#aP"/><use transform="matrix(0.05,0,0,0.05,12.950000000000001,0)" xlink:href="#aq"/><use transform="matrix(0.05,0,0,0.05,22.950000000000003,0)" xlink:href="#ak"/><use transform="matrix(0.05,0,0,0.05,26.900000000000002,0)" xlink:href="#ao"/><use transform="matrix(0.05,0,0,0.05,36.900000000000006,0)" xlink:href="#as"/><use transform="matrix(0.05,0,0,0.05,41.900000000000006,0)" xlink:href="#al"/><use transform="matrix(0.05,0,0,0.05,45.85000000000001,0)" xlink:href="#ap"/><use transform="matrix(0.05,0,0,0.05,55.85,0)" xlink:href="#am"/></g><g id="y"><use transform="matrix(0.05,0,0,0.05,0,0)" xlink:href="#aq"/><use transform="matrix(0.05,0,0,0.05,10,0)" xlink:href="#au"/><use transform="matrix(0.05,0,0,0.05,19,0)" xlink:href="#as"/><use transform="matrix(0.05,0,0,0.05,24,0)" xlink:href="#av"/><use transform="matrix(0.05,0,0,0.05,29.950000000000003,0)" xlink:href="#ao"/><use transform="matrix(0.05,0,0,0.05,39.95,0)" xlink:href="#an"/><use transform="matrix(0.05,0,0,0.05,48.95,0)" xlink:href="#as"/><use transform="matrix(0.05,0,0,0.05,53.95,0)" xlink:href="#al"/><use transform="matrix(0.05,0,0,0.05,57.900000000000006,0)" xlink:href="#ap"/><use transform="matrix(0.05,0,0,0.05,67.9,0)" xlink:href="#am"/></g><path d="M24 0v-248h195v40H76v63h132v40H76v65h150V0H24" id="aQ"/><path d="M144 0l-44-69L55 0H2l70-98-66-92h53l41 62 40-62h54l-67 91 71 99h-54" id="aR"/><path d="M115-3C79 11 28 4 28-45v-112H4v-33h27l15-45h31v45h36v33H77v99c-1 23 16 31 38 25v30" id="aS"/><path d="M185-48c-13 30-37 53-82 52C43 2 14-33 14-96s30-98 90-98c62 0 83 45 84 108H66c0 31 8 55 39 56 18 0 30-7 34-22zm-45-69c5-46-57-63-70-21-2 6-4 13-4 21h74" id="aT"/><path d="M135-150c-39-12-60 13-60 57V0H25l-1-190h47c2 13-1 29 3 40 6-28 27-53 61-41v41" id="aU"/><path d="M135-194c87-1 58 113 63 194h-50c-7-57 23-157-34-157-59 0-34 97-39 157H25l-1-190h47c2 12-1 28 3 38 12-26 28-41 61-42" id="aV"/><path d="M133-34C117-15 103 5 69 4 32 3 11-16 11-54c-1-60 55-63 116-61 1-26-3-47-28-47-18 1-26 9-28 27l-52-2c7-38 36-58 82-57s74 22 75 68l1 82c-1 14 12 18 25 15v27c-30 8-71 5-69-32zm-48 3c29 0 43-24 42-57-32 0-66-3-65 30 0 17 8 27 23 27" id="aW"/><path d="M25 0v-261h50V0H25" id="aX"/><g id="z"><use transform="matrix(0.08641975308641976,0,0,0.08641975308641976,0,0)" xlink:href="#aQ"/><use transform="matrix(0.08641975308641976,0,0,0.08641975308641976,20.740740740740744,0)" xlink:href="#aR"/><use transform="matrix(0.08641975308641976,0,0,0.08641975308641976,38.0246913580247,0)" xlink:href="#aS"/><use transform="matrix(0.08641975308641976,0,0,0.08641975308641976,48.308641975308646,0)" xlink:href="#aT"/><use transform="matrix(0.08641975308641976,0,0,0.08641975308641976,65.5925925925926,0)" xlink:href="#aU"/><use transform="matrix(0.08641975308641976,0,0,0.08641975308641976,77.69135802469137,0)" xlink:href="#aV"/><use transform="matrix(0.08641975308641976,0,0,0.08641975308641976,96.61728395061729,0)" xlink:href="#aW"/><use transform="matrix(0.08641975308641976,0,0,0.08641975308641976,113.90123456790124,0)" xlink:href="#aX"/></g><path d="M24 0v-248h52V0H24" id="aY"/><g id="A"><use transform="matrix(0.08641975308641976,0,0,0.08641975308641976,0,0)" xlink:href="#ag"/><use transform="matrix(0.08641975308641976,0,0,0.08641975308641976,22.38271604938272,0)" xlink:href="#aE"/><use transform="matrix(0.08641975308641976,0,0,0.08641975308641976,43.12345679012346,0)" xlink:href="#aY"/><use transform="matrix(0.08641975308641976,0,0,0.08641975308641976,51.76543209876544,0)" xlink:href="#ai"/></g><path d="M24-248c120-7 223 5 221 122C244-46 201 0 124 0H24v-248zM76-40c74 7 117-18 117-86 0-67-45-88-117-82v168" id="aZ"/><path d="M110-194c64 0 96 36 96 99 0 64-35 99-97 99-61 0-95-36-95-99 0-62 34-99 96-99zm-1 164c35 0 45-28 45-65 0-40-10-65-43-65-34 0-45 26-45 65 0 36 10 65 43 65" id="ba"/><path d="M220-157c-53 9-28 100-34 157h-49v-107c1-27-5-49-29-50C55-147 81-57 75 0H25l-1-190h47c2 12-1 28 3 38 10-53 101-56 108 0 13-22 24-43 59-42 82 1 51 116 57 194h-49v-107c-1-25-5-48-29-50" id="bb"/><path d="M25-224v-37h50v37H25zM25 0v-190h50V0H25" id="bc"/><g id="B"><use transform="matrix(0.05,0,0,0.05,0,0)" xlink:href="#aZ"/><use transform="matrix(0.05,0,0,0.05,12.950000000000001,0)" xlink:href="#ba"/><use transform="matrix(0.05,0,0,0.05,23.900000000000002,0)" xlink:href="#bb"/><use transform="matrix(0.05,0,0,0.05,39.900000000000006,0)" xlink:href="#aW"/><use transform="matrix(0.05,0,0,0.05,49.900000000000006,0)" xlink:href="#bc"/><use transform="matrix(0.05,0,0,0.05,54.900000000000006,0)" xlink:href="#aV"/></g><path d="M195 0l-88-114-31 24V0H24v-248h52v113l112-113h60L142-143 257 0h-62" id="bd"/><path d="M231 0h-52l-39-155L100 0H48L-1-190h46L77-45c9-52 24-97 36-145h53l37 145 32-145h46" id="be"/><path d="M88-194c31-1 46 15 58 34l-1-101h50l1 261h-48c-2-10 0-23-3-31C134-8 116 4 84 4 32 4 16-41 15-95c0-56 19-97 73-99zm17 164c33 0 40-30 41-66 1-37-9-64-41-64s-38 30-39 65c0 43 13 65 39 65" id="bf"/><path d="M195-6C206 82 75 100 31 46c-4-6-6-13-8-21l49-6c3 16 16 24 34 25 40 0 42-37 40-79-11 22-30 35-61 35-53 0-70-43-70-97 0-56 18-96 73-97 30 0 46 14 59 34l2-30h47zm-90-29c32 0 41-27 41-63 0-35-9-62-40-62-32 0-39 29-40 63 0 36 9 62 39 62" id="bg"/><g id="C"><use transform="matrix(0.05,0,0,0.05,0,0)" xlink:href="#bd"/><use transform="matrix(0.05,0,0,0.05,12.950000000000001,0)" xlink:href="#aV"/><use transform="matrix(0.05,0,0,0.05,23.900000000000002,0)" xlink:href="#ba"/><use transform="matrix(0.05,0,0,0.05,34.85,0)" xlink:href="#be"/><use transform="matrix(0.05,0,0,0.05,48.85,0)" xlink:href="#aX"/><use transform="matrix(0.05,0,0,0.05,53.85,0)" xlink:href="#aT"/><use transform="matrix(0.05,0,0,0.05,63.85,0)" xlink:href="#bf"/><use transform="matrix(0.05,0,0,0.05,74.8,0)" xlink:href="#bg"/><use transform="matrix(0.05,0,0,0.05,85.75,0)" xlink:href="#aT"/></g><g id="D"><use transform="matrix(0.05,0,0,0.05,0,0)" xlink:href="#ag"/><use transform="matrix(0.05,0,0,0.05,12.950000000000001,0)" xlink:href="#aE"/><use transform="matrix(0.05,0,0,0.05,24.950000000000003,0)" xlink:href="#aY"/></g><path d="M232-93c-1 65-40 97-104 97C67 4 28-28 28-90v-158h33c8 89-33 224 67 224 102 0 64-133 71-224h33v155" id="bh"/><g id="F"><use transform="matrix(0.05,0,0,0.05,0,0)" xlink:href="#bh"/><use transform="matrix(0.05,0,0,0.05,12.950000000000001,0)" xlink:href="#am"/><use transform="matrix(0.05,0,0,0.05,22.950000000000003,0)" xlink:href="#al"/><use transform="matrix(0.05,0,0,0.05,26.900000000000002,0)" xlink:href="#aM"/><use transform="matrix(0.05,0,0,0.05,31.900000000000002,0)" xlink:href="#al"/><use transform="matrix(0.05,0,0,0.05,35.85,0)" xlink:href="#aq"/><use transform="matrix(0.05,0,0,0.05,45.85,0)" xlink:href="#aw"/></g><path d="M240 0l2-218c-23 76-54 145-80 218h-23L58-218 59 0H30v-248h44l77 211c21-75 51-140 76-211h43V0h-30" id="bi"/><g id="G"><use transform="matrix(0.05,0,0,0.05,0,0)" xlink:href="#bi"/><use transform="matrix(0.05,0,0,0.05,14.950000000000001,0)" xlink:href="#aq"/><use transform="matrix(0.05,0,0,0.05,24.950000000000003,0)" xlink:href="#aw"/><use transform="matrix(0.05,0,0,0.05,34.95,0)" xlink:href="#al"/><use transform="matrix(0.05,0,0,0.05,38.900000000000006,0)" xlink:href="#an"/><use transform="matrix(0.05,0,0,0.05,47.900000000000006,0)" xlink:href="#ao"/><use transform="matrix(0.05,0,0,0.05,57.900000000000006,0)" xlink:href="#ak"/></g><g id="H"><use transform="matrix(0.05,0,0,0.05,0,0)" xlink:href="#aG"/><use transform="matrix(0.05,0,0,0.05,10,0)" xlink:href="#ao"/><use transform="matrix(0.05,0,0,0.05,20,0)" xlink:href="#am"/><use transform="matrix(0.05,0,0,0.05,30,0)" xlink:href="#aK"/><use transform="matrix(0.05,0,0,0.05,40,0)" xlink:href="#ax"/><use transform="matrix(0.05,0,0,0.05,50,0)" xlink:href="#ao"/><use transform="matrix(0.05,0,0,0.05,60,0)" xlink:href="#aK"/><use transform="matrix(0.05,0,0,0.05,70,0)" xlink:href="#aq"/></g><g id="I"><use transform="matrix(0.05,0,0,0.05,0,0)" xlink:href="#aA"/><use transform="matrix(0.05,0,0,0.05,12,0)" xlink:href="#aB"/><use transform="matrix(0.05,0,0,0.05,21,0)" xlink:href="#at"/><use transform="matrix(0.05,0,0,0.05,30,0)" xlink:href="#as"/><use transform="matrix(0.05,0,0,0.05,35,0)" xlink:href="#aq"/><use transform="matrix(0.05,0,0,0.05,45,0)" xlink:href="#ay"/></g><g id="K"><use transform="matrix(0.05,0,0,0.05,0,0)" xlink:href="#aC"/><use transform="matrix(0.05,0,0,0.05,12.950000000000001,0)" xlink:href="#aD"/><use transform="matrix(0.05,0,0,0.05,23.900000000000002,0)" xlink:href="#aE"/></g><g id="L"><use transform="matrix(0.05,0,0,0.05,0,0)" xlink:href="#ag"/><use transform="matrix(0.05,0,0,0.05,12.950000000000001,0)" xlink:href="#aE"/><use transform="matrix(0.05,0,0,0.05,24.950000000000003,0)" xlink:href="#aY"/><use transform="matrix(0.05,0,0,0.05,29.950000000000003,0)" xlink:href="#ai"/></g><path d="M62-168c30 0 50 19 50 48S92-70 62-70c-29 0-48-21-48-50s20-48 48-48" id="bj"/><use transform="matrix(0.05,0,0,0.05,0,0)" xlink:href="#bj" id="M"/><path d="M160-131c35 5 61 23 61 61C221 17 115-2 30 0v-248c76 3 177-17 177 60 0 33-19 50-47 57zm-97-11c50-1 110 9 110-42 0-47-63-36-110-37v79zm0 115c55-2 124 14 124-45 0-56-70-42-124-44v89" id="bk"/><g id="N"><use transform="matrix(0.05,0,0,0.05,0,0)" xlink:href="#aJ"/><use transform="matrix(0.05,0,0,0.05,5,0)" xlink:href="#bk"/><use transform="matrix(0.05,0,0,0.05,17,0)" xlink:href="#bi"/></g><path d="M266 0h-40l-56-210L115 0H75L2-248h35L96-30l15-64 43-154h32l59 218 59-218h35" id="bl"/><g id="O"><use transform="matrix(0.05,0,0,0.05,0,0)" xlink:href="#bl"/><use transform="matrix(0.05,0,0,0.05,16.3,0)" xlink:href="#ao"/><use transform="matrix(0.05,0,0,0.05,26.3,0)" xlink:href="#at"/><use transform="matrix(0.05,0,0,0.05,35.3,0)" xlink:href="#as"/><use transform="matrix(0.05,0,0,0.05,40.3,0)" xlink:href="#ap"/><use transform="matrix(0.05,0,0,0.05,50.3,0)" xlink:href="#am"/></g><path d="M140-251c81 0 123 46 123 126C263-46 219 4 140 4 59 4 17-45 17-125s42-126 123-126zm0 227c63 0 89-41 89-101s-29-99-89-99c-61 0-89 39-89 99S79-25 140-24" id="bm"/><g id="P"><use transform="matrix(0.05,0,0,0.05,0,0)" xlink:href="#bm"/><use transform="matrix(0.05,0,0,0.05,14,0)" xlink:href="#ar"/><use transform="matrix(0.05,0,0,0.05,24,0)" xlink:href="#aq"/><use transform="matrix(0.05,0,0,0.05,34,0)" xlink:href="#am"/><use transform="matrix(0.05,0,0,0.05,44,0)" xlink:href="#aF"/><use transform="matrix(0.05,0,0,0.05,56.95,0)" xlink:href="#aG"/><use transform="matrix(0.05,0,0,0.05,66.95,0)" xlink:href="#aH"/></g><g id="Q"><use transform="matrix(0.05,0,0,0.05,0,0)" xlink:href="#aI"/><use transform="matrix(0.05,0,0,0.05,12,0)" xlink:href="#ak"/><use transform="matrix(0.05,0,0,0.05,15.949999999999998,0)" xlink:href="#an"/><use transform="matrix(0.05,0,0,0.05,24.95,0)" xlink:href="#aN"/><use transform="matrix(0.05,0,0,0.05,34.95,0)" xlink:href="#aq"/><use transform="matrix(0.05,0,0,0.05,44.95,0)" xlink:href="#ay"/><use transform="matrix(0.05,0,0,0.05,59.900000000000006,0)" xlink:href="#aB"/><use transform="matrix(0.05,0,0,0.05,68.9,0)" xlink:href="#aI"/><use transform="matrix(0.05,0,0,0.05,80.9,0)" xlink:href="#aH"/><use transform="matrix(0.05,0,0,0.05,92.9,0)" xlink:href="#aJ"/></g><g id="R"><use transform="matrix(0.05,0,0,0.05,0,0)" xlink:href="#aI"/><use transform="matrix(0.05,0,0,0.05,11.65,0)" xlink:href="#aB"/><use transform="matrix(0.05,0,0,0.05,20.65,0)" xlink:href="#ak"/><use transform="matrix(0.05,0,0,0.05,24.599999999999998,0)" xlink:href="#al"/><use transform="matrix(0.05,0,0,0.05,28.549999999999997,0)" xlink:href="#aq"/><use transform="matrix(0.05,0,0,0.05,38.55,0)" xlink:href="#am"/></g><g id="S"><use transform="matrix(0.05,0,0,0.05,0,0)" xlink:href="#bi"/><use transform="matrix(0.05,0,0,0.05,14.950000000000001,0)" xlink:href="#aq"/><use transform="matrix(0.05,0,0,0.05,24.950000000000003,0)" xlink:href="#ao"/><use transform="matrix(0.05,0,0,0.05,34.95,0)" xlink:href="#am"/><use transform="matrix(0.05,0,0,0.05,44.95,0)" xlink:href="#al"/><use transform="matrix(0.05,0,0,0.05,48.900000000000006,0)" xlink:href="#am"/><use transform="matrix(0.05,0,0,0.05,58.900000000000006,0)" xlink:href="#aK"/></g><g id="T"><use transform="matrix(0.05,0,0,0.05,0,0)" xlink:href="#aj"/><use transform="matrix(0.05,0,0,0.05,12.950000000000001,0)" xlink:href="#ak"/><use transform="matrix(0.05,0,0,0.05,16.900000000000002,0)" xlink:href="#ap"/><use transform="matrix(0.05,0,0,0.05,26.900000000000002,0)" xlink:href="#ax"/><use transform="matrix(0.05,0,0,0.05,36.900000000000006,0)" xlink:href="#aw"/></g><path d="M127-220V0H93v-220H8v-28h204v28h-85" id="bn"/><g id="U"><use transform="matrix(0.05,0,0,0.05,0,0)" xlink:href="#bn"/><use transform="matrix(0.05,0,0,0.05,8.950000000000001,0)" xlink:href="#aq"/><use transform="matrix(0.05,0,0,0.05,18.950000000000003,0)" xlink:href="#au"/><use transform="matrix(0.05,0,0,0.05,27.950000000000003,0)" xlink:href="#as"/><use transform="matrix(0.05,0,0,0.05,32.95,0)" xlink:href="#aP"/><use transform="matrix(0.05,0,0,0.05,45.900000000000006,0)" xlink:href="#ao"/><use transform="matrix(0.05,0,0,0.05,55.900000000000006,0)" xlink:href="#az"/><use transform="matrix(0.05,0,0,0.05,64.9,0)" xlink:href="#ap"/><use transform="matrix(0.05,0,0,0.05,74.9,0)" xlink:href="#av"/></g><g id="V"><use transform="matrix(0.05,0,0,0.05,0,0)" xlink:href="#bm"/><use transform="matrix(0.05,0,0,0.05,14,0)" xlink:href="#ar"/><use transform="matrix(0.05,0,0,0.05,24,0)" xlink:href="#aq"/><use transform="matrix(0.05,0,0,0.05,34,0)" xlink:href="#am"/></g><g id="W"><use transform="matrix(0.05,0,0,0.05,0,0)" xlink:href="#aj"/><use transform="matrix(0.05,0,0,0.05,12.950000000000001,0)" xlink:href="#ao"/><use transform="matrix(0.05,0,0,0.05,22.950000000000003,0)" xlink:href="#ak"/><use transform="matrix(0.05,0,0,0.05,26.900000000000002,0)" xlink:href="#ao"/><use transform="matrix(0.05,0,0,0.05,36.900000000000006,0)" xlink:href="#al"/><use transform="matrix(0.05,0,0,0.05,40.85000000000001,0)" xlink:href="#at"/></g><path d="M33 0v-38h34V0H33" id="bo"/><g id="X"><use transform="matrix(0.05,0,0,0.05,0,0)" xlink:href="#bo"/><use transform="matrix(0.05,0,0,0.05,5,0)" xlink:href="#bo"/><use transform="matrix(0.05,0,0,0.05,10,0)" xlink:href="#bo"/><use transform="matrix(0.05,0,0,0.05,15,0)" xlink:href="#bo"/></g><path d="M121-226c-27-7-43 5-38 36h38v33H83V0H34v-157H6v-33h28c-9-59 32-81 87-68v32" id="bp"/><path d="M85 4C-2 5 27-109 22-190h50c7 57-23 150 33 157 60-5 35-97 40-157h50l1 190h-47c-2-12 1-28-3-38-12 25-28 42-61 42" id="bq"/><path d="M190-63c-7 42-38 67-86 67-59 0-84-38-90-98-12-110 154-137 174-36l-49 2c-2-19-15-32-35-32-30 0-35 28-38 64-6 74 65 87 74 30" id="br"/><g id="Y"><use transform="matrix(0.08641975308641976,0,0,0.08641975308641976,0,0)" xlink:href="#aY"/><use transform="matrix(0.08641975308641976,0,0,0.08641975308641976,8.641975308641976,0)" xlink:href="#aV"/><use transform="matrix(0.08641975308641976,0,0,0.08641975308641976,27.567901234567906,0)" xlink:href="#bp"/><use transform="matrix(0.08641975308641976,0,0,0.08641975308641976,37.851851851851855,0)" xlink:href="#aU"/><use transform="matrix(0.08641975308641976,0,0,0.08641975308641976,49.95061728395062,0)" xlink:href="#aW"/><use transform="matrix(0.08641975308641976,0,0,0.08641975308641976,67.23456790123457,0)" xlink:href="#ai"/><use transform="matrix(0.08641975308641976,0,0,0.08641975308641976,84.51851851851852,0)" xlink:href="#aS"/><use transform="matrix(0.08641975308641976,0,0,0.08641975308641976,94.80246913580245,0)" xlink:href="#aU"/><use transform="matrix(0.08641975308641976,0,0,0.08641975308641976,106.90123456790124,0)" xlink:href="#bq"/><use transform="matrix(0.08641975308641976,0,0,0.08641975308641976,125.82716049382718,0)" xlink:href="#br"/><use transform="matrix(0.08641975308641976,0,0,0.08641975308641976,143.11111111111111,0)" xlink:href="#aS"/><use transform="matrix(0.08641975308641976,0,0,0.08641975308641976,153.39506172839506,0)" xlink:href="#bq"/><use transform="matrix(0.08641975308641976,0,0,0.08641975308641976,172.320987654321,0)" xlink:href="#aU"/><use transform="matrix(0.08641975308641976,0,0,0.08641975308641976,184.41975308641975,0)" xlink:href="#aT"/></g><g id="Z"><use transform="matrix(0.05,0,0,0.05,0,0)" xlink:href="#aI"/><use transform="matrix(0.05,0,0,0.05,12,0)" xlink:href="#aH"/><use transform="matrix(0.05,0,0,0.05,24,0)" xlink:href="#aJ"/></g><g id="aa"><use transform="matrix(0.05,0,0,0.05,0,0)" xlink:href="#aH"/><use transform="matrix(0.05,0,0,0.05,12,0)" xlink:href="#av"/><use transform="matrix(0.05,0,0,0.05,17.95,0)" xlink:href="#ap"/><use transform="matrix(0.05,0,0,0.05,27.950000000000003,0)" xlink:href="#an"/><use transform="matrix(0.05,0,0,0.05,36.95,0)" xlink:href="#aq"/><use transform="matrix(0.05,0,0,0.05,46.95,0)" xlink:href="#at"/><use transform="matrix(0.05,0,0,0.05,55.95,0)" xlink:href="#at"/><use transform="matrix(0.05,0,0,0.05,64.95,0)" xlink:href="#al"/><use transform="matrix(0.05,0,0,0.05,68.9,0)" xlink:href="#am"/><use transform="matrix(0.05,0,0,0.05,78.9,0)" xlink:href="#aK"/></g><g id="ab"><use transform="matrix(0.05,0,0,0.05,0,0)" xlink:href="#aA"/><use transform="matrix(0.05,0,0,0.05,12,0)" xlink:href="#aq"/><use transform="matrix(0.05,0,0,0.05,22,0)" xlink:href="#an"/><use transform="matrix(0.05,0,0,0.05,31,0)" xlink:href="#ax"/><use transform="matrix(0.05,0,0,0.05,41,0)" xlink:href="#av"/><use transform="matrix(0.05,0,0,0.05,46.95,0)" xlink:href="#al"/><use transform="matrix(0.05,0,0,0.05,50.900000000000006,0)" xlink:href="#as"/><use transform="matrix(0.05,0,0,0.05,55.900000000000006,0)" xlink:href="#aB"/></g><path d="M108 0H70L1-190h34L89-25l56-165h34" id="bs"/><g id="ac"><use transform="matrix(0.05,0,0,0.05,0,0)" xlink:href="#aH"/><use transform="matrix(0.05,0,0,0.05,12,0)" xlink:href="#av"/><use transform="matrix(0.05,0,0,0.05,17.95,0)" xlink:href="#al"/><use transform="matrix(0.05,0,0,0.05,21.9,0)" xlink:href="#bs"/><use transform="matrix(0.05,0,0,0.05,30.899999999999995,0)" xlink:href="#ao"/><use transform="matrix(0.05,0,0,0.05,40.9,0)" xlink:href="#an"/><use transform="matrix(0.05,0,0,0.05,49.9,0)" xlink:href="#aB"/></g><path d="M145-31C134-9 116 4 85 4 32 4 16-35 15-94c0-59 17-99 70-100 32-1 48 14 60 33 0-11-1-24 2-32h30l-1 268h-32zM93-21c41 0 51-33 51-76s-8-73-50-73c-40 0-46 35-46 75s5 74 45 74" id="bt"/><g id="ad"><use transform="matrix(0.05,0,0,0.05,0,0)" xlink:href="#as"/><use transform="matrix(0.05,0,0,0.05,5,0)" xlink:href="#aq"/><use transform="matrix(0.05,0,0,0.05,15,0)" xlink:href="#an"/><use transform="matrix(0.05,0,0,0.05,24,0)" xlink:href="#aN"/><use transform="matrix(0.05,0,0,0.05,34,0)" xlink:href="#am"/><use transform="matrix(0.05,0,0,0.05,44,0)" xlink:href="#al"/><use transform="matrix(0.05,0,0,0.05,47.95,0)" xlink:href="#bt"/><use transform="matrix(0.05,0,0,0.05,57.95,0)" xlink:href="#ax"/><use transform="matrix(0.05,0,0,0.05,67.95,0)" xlink:href="#aq"/><use transform="matrix(0.05,0,0,0.05,77.95,0)" xlink:href="#at"/></g><g id="ae"><use transform="matrix(0.05,0,0,0.05,0,0)" xlink:href="#al"/><use transform="matrix(0.05,0,0,0.05,3.95,0)" xlink:href="#ay"/><use transform="matrix(0.05,0,0,0.05,18.900000000000002,0)" xlink:href="#ar"/><use transform="matrix(0.05,0,0,0.05,28.900000000000002,0)" xlink:href="#ak"/><use transform="matrix(0.05,0,0,0.05,32.85,0)" xlink:href="#aq"/><use transform="matrix(0.05,0,0,0.05,42.85,0)" xlink:href="#ay"/><use transform="matrix(0.05,0,0,0.05,57.800000000000004,0)" xlink:href="#aq"/><use transform="matrix(0.05,0,0,0.05,67.80000000000001,0)" xlink:href="#am"/><use transform="matrix(0.05,0,0,0.05,77.80000000000001,0)" xlink:href="#as"/><use transform="matrix(0.05,0,0,0.05,82.80000000000001,0)" xlink:href="#aq"/><use transform="matrix(0.05,0,0,0.05,92.80000000000001,0)" xlink:href="#aw"/></g><g id="af"><use transform="matrix(0.05,0,0,0.05,0,0)" xlink:href="#ak"/><use transform="matrix(0.05,0,0,0.05,3.95,0)" xlink:href="#ap"/><use transform="matrix(0.05,0,0,0.05,13.949999999999998,0)" xlink:href="#an"/><use transform="matrix(0.05,0,0,0.05,22.95,0)" xlink:href="#ao"/><use transform="matrix(0.05,0,0,0.05,32.95,0)" xlink:href="#ak"/><use transform="matrix(0.05,0,0,0.05,36.900000000000006,0)" xlink:href="#ak"/><use transform="matrix(0.05,0,0,0.05,40.85000000000001,0)" xlink:href="#aB"/></g></defs></g></svg>